<?xml version="1.0" encoding="UTF-8" standalone="no"?>
<!-- Created with Inkscape (http://www.inkscape.org/) -->

<svg
   xmlns:dc="http://purl.org/dc/elements/1.1/"
   xmlns:cc="http://creativecommons.org/ns#"
   xmlns:rdf="http://www.w3.org/1999/02/22-rdf-syntax-ns#"
   xmlns:svg="http://www.w3.org/2000/svg"
   xmlns="http://www.w3.org/2000/svg"
   xmlns:sodipodi="http://sodipodi.sourceforge.net/DTD/sodipodi-0.dtd"
   xmlns:inkscape="http://www.inkscape.org/namespaces/inkscape"
   width="210mm"
   height="297mm"
   id="svg2"
   version="1.1"
   inkscape:version="0.48.1 "
   sodipodi:docname="Documento nuevo 1">
  <defs
     id="defs4" />
  <sodipodi:namedview
     id="base"
     pagecolor="#ffffff"
     bordercolor="#666666"
     borderopacity="1.0"
     inkscape:pageopacity="0.0"
     inkscape:pageshadow="2"
     inkscape:zoom="0.45"
     inkscape:cx="68.888889"
     inkscape:cy="520"
     inkscape:document-units="px"
     inkscape:current-layer="layer1"
     showgrid="false"
     inkscape:window-width="1366"
     inkscape:window-height="706"
     inkscape:window-x="-8"
     inkscape:window-y="-8"
     inkscape:window-maximized="1" />
  <metadata
     id="metadata7">
    <rdf:RDF>
      <cc:Work
         rdf:about="">
        <dc:format>image/svg+xml</dc:format>
        <dc:type
           rdf:resource="http://purl.org/dc/dcmitype/StillImage" />
        <dc:title></dc:title>
      </cc:Work>
    </rdf:RDF>
  </metadata>
  <g
     inkscape:label="Capa 1"
     inkscape:groupmode="layer"
     id="layer1">
    <path
       style="fill:#000000;fill-rule:evenodd;stroke:#000000;stroke-width:1.18218207px;stroke-linecap:butt;stroke-linejoin:miter;stroke-opacity:1"
       d="M 368.05831,166.27857 C 173.52774,168.32231 15.052536,325.19623 12.152056,520.84106 l 0,11.3125 C 15.380806,726.49464 172.33677,883.17858 366.68331,886.05981 565.4336,889.00633 728.95554,730.27886 731.90206,531.52856 734.84858,332.77826 576.12111,169.25634 377.37081,166.30982 c -3.10547,-0.046 -6.22471,-0.0637 -9.3125,-0.0312 z m -30.1875,145.06249 68.34375,0 c 2.09772,0 3.78125,1.68354 3.78125,3.78125 l 0,173.09375 173.09375,0 c 2.09772,0 3.78125,1.68353 3.78125,3.78125 l 0,68.34375 c 0,2.09772 -1.68353,3.8125 -3.78125,3.8125 l -173.09375,0 0,173.09375 c 0,2.09772 -1.68353,3.78125 -3.78125,3.78125 l -68.34375,0 c -2.09772,0 -3.78125,-1.68353 -3.78125,-3.78125 l 0,-173.09375 -173.09375,0 c -2.09772,0 -3.78125,-1.71478 -3.78125,-3.8125 l 0,-68.34375 c 0,-2.09772 1.68353,-3.78125 3.78125,-3.78125 l 173.09375,0 0,-173.09375 c 0,-2.09771 1.68353,-3.78125 3.78125,-3.78125 z"
       id="path2996"
       inkscape:connector-curvature="0" />
  </g>
</svg>
